<svg width="56" height="56" viewBox="0 0 56 56" fill="none" xmlns="http://www.w3.org/2000/svg">
<g id="bitcoin 2" clip-path="url(#clip0_1_55)">
<g id="Group">
<path id="Vector" d="M46.6385 29.379C45.3375 27.6967 43.3743 26.5412 40.7489 25.9131C44.0921 24.2078 45.5613 21.3135 45.158 17.2296C45.0231 15.7488 44.6138 14.4653 43.9292 13.3774C43.2441 12.2893 42.3196 11.4146 41.1522 10.7528C39.9857 10.0902 38.717 9.58582 37.349 9.23809C35.9807 8.89035 34.4098 8.63786 32.6372 8.48097V0H27.4549V8.24533C26.5575 8.24533 25.189 8.26773 23.3494 8.31264V0H18.1664V8.48097C17.4258 8.50348 16.3378 8.51492 14.9019 8.51492L7.76733 8.48097V14.0004H11.5027C13.2079 14.0004 14.2063 14.7634 14.498 16.2889V25.9479C14.7226 25.9479 14.9019 25.9594 15.0367 25.9818H14.498V39.5104C14.3187 40.6544 13.6681 41.2269 12.5462 41.2269H8.81101L7.76757 47.3858H14.4985C14.9249 47.3858 15.5415 47.3915 16.3496 47.4016C17.1571 47.4129 17.7627 47.4186 18.1666 47.4186V56.0004H23.3505V47.5195C24.2925 47.5425 25.6611 47.5535 27.456 47.5535V56.0004H32.6384V47.4186C34.4786 47.329 36.1107 47.1616 37.5348 46.914C38.9595 46.6663 40.3229 46.2799 41.6239 45.7523C42.9248 45.2254 44.0128 44.5687 44.8877 43.7834C45.763 42.9988 46.486 41.9999 47.0591 40.7882C47.6303 39.5764 47.9954 38.1741 48.1519 36.5808C48.4448 33.463 47.9397 31.0621 46.6385 29.379ZM23.4502 14.3696C23.6073 14.3696 24.0504 14.3639 24.7796 14.3526C25.5091 14.3411 26.1147 14.33 26.597 14.3187C27.0795 14.3076 27.7302 14.3357 28.5494 14.403C29.3683 14.4703 30.0581 14.5602 30.6188 14.6722C31.1796 14.7842 31.7971 14.9694 32.4696 15.2274C33.1433 15.4852 33.6814 15.7994 34.0848 16.1696C34.489 16.5397 34.831 17.0111 35.111 17.5833C35.3918 18.1553 35.5321 18.8115 35.5321 19.5518C35.5321 20.1801 35.4313 20.7524 35.2296 21.2687C35.0282 21.7846 34.7246 22.2166 34.3212 22.5644C33.9177 22.9122 33.5019 23.2154 33.0755 23.4732C32.6496 23.731 32.105 23.9387 31.4434 24.0956C30.7819 24.2527 30.2042 24.3761 29.7108 24.4657C29.2172 24.5555 28.6003 24.6174 27.8598 24.6509C27.1192 24.6844 26.5581 24.7072 26.1769 24.7183C25.7953 24.7294 25.2739 24.7294 24.6118 24.7183C23.9495 24.7072 23.563 24.7013 23.4506 24.7013V14.3695L23.4502 14.3696ZM37.6024 37.2879C37.3887 37.8042 37.1143 38.2532 36.778 38.6349C36.4411 39.0157 35.9978 39.3526 35.4484 39.6438C34.8991 39.9359 34.3657 40.1711 33.8501 40.3506C33.3338 40.5308 32.7109 40.687 31.9824 40.8221C31.2523 40.9569 30.6133 41.0516 30.0631 41.1081C29.5136 41.1643 28.8577 41.209 28.0945 41.2429C27.332 41.2759 26.7371 41.293 26.3109 41.293C25.8846 41.293 25.346 41.2869 24.6953 41.2759C24.0443 41.2655 23.6296 41.2598 23.45 41.2598V29.8841C23.6293 29.8841 24.1622 29.8732 25.0486 29.8503C25.9351 29.8277 26.6583 29.8172 27.2193 29.8172C27.7801 29.8172 28.5545 29.8503 29.542 29.9181C30.5287 29.9849 31.3589 30.0855 32.0325 30.2201C32.7054 30.3549 33.4396 30.5622 34.2367 30.8429C35.033 31.1233 35.6783 31.4653 36.1721 31.8692C36.6658 32.2737 37.0806 32.789 37.417 33.4174C37.7543 34.0454 37.9225 34.7635 37.9225 35.5714C37.9223 36.2003 37.8159 36.7715 37.6024 37.2879Z" fill="black"/>
</g>
</g>
<defs>
<clipPath id="clip0_1_55">
<rect width="56" height="56" fill="white"/>
</clipPath>
</defs>
</svg>
