<svg width="57" height="56" viewBox="0 0 57 56" fill="none" xmlns="http://www.w3.org/2000/svg">
<g id="Group">
<path id="Vector" d="M0.320312 25.9845H11.1877C11.3481 22.2954 11.9496 18.6459 12.9922 15.0972L11.9296 14.7564C9.6439 14.0146 7.41839 13.0922 5.25312 11.9895C2.38594 16.1198 0.681725 20.952 0.320826 25.9841L0.320312 25.9845Z" fill="#8BFF85"/>
<path id="Vector_2" d="M26.3053 17.3434C23.1374 17.2231 19.9895 16.802 16.8815 16.1204C15.9191 19.3484 15.3577 22.657 15.2173 25.9849H26.3048L26.3053 17.3434Z" fill="#8BFF85"/>
<path id="Vector_3" d="M13.1525 10.9275L14.3154 11.2884C15.6988 7.69944 17.5234 4.35144 19.749 1.26343C15.2378 2.68701 11.1477 5.25341 7.8396 8.78233C9.58398 9.62443 11.3681 10.326 13.1525 10.9275Z" fill="#8BFF85"/>
<path id="Vector_4" d="M18.2248 12.2908C20.8914 12.8723 23.5982 13.2131 26.3051 13.3134V0.000244141C26.1647 0.0202941 26.0244 0.0202941 25.884 0.0403441C22.6158 3.64934 20.0496 7.75923 18.2248 12.2908Z" fill="#8BFF85"/>
<path id="Vector_5" d="M5.25239 43.9897C7.3576 42.9271 9.56316 42.0047 11.8487 41.2429L12.9915 40.9021C11.9489 37.3532 11.3474 33.704 11.187 29.9949H0.31958C0.68048 35.0274 2.38527 39.8597 5.25239 43.9897Z" fill="#8BFF85"/>
<path id="Vector_6" d="M13.0922 45.0522C11.3078 45.6537 9.54339 46.3755 7.83911 47.1775C11.1273 50.7063 15.2374 53.2927 19.769 54.7163C17.5234 51.6085 15.6988 48.2605 14.3154 44.6714L13.0922 45.0522Z" fill="#8BFF85"/>
<path id="Vector_7" d="M16.8615 39.8797C19.9693 39.1779 23.1372 38.7569 26.3052 38.6366V29.9949H15.2178C15.3581 33.3633 15.9192 36.6717 16.8615 39.8797Z" fill="#8BFF85"/>
<path id="Vector_8" d="M26.3052 55.9998V42.6667C23.5984 42.767 20.8917 43.1078 18.2249 43.6893C20.0695 48.2807 22.6559 52.3708 25.9439 55.9599C26.0642 55.98 26.1849 55.9998 26.3052 55.9998Z" fill="#8BFF85"/>
<path id="Vector_9" d="M30.3152 55.9793C33.6636 52.3302 36.3102 48.18 38.1549 43.6086C35.5885 43.0673 32.9619 42.7465 30.3152 42.6462V55.9793Z" fill="#8BFF85"/>
<path id="Vector_10" d="M42.0846 44.6113C40.641 48.2805 38.7362 51.7087 36.4104 54.857C41.1222 53.4736 45.3928 50.827 48.801 47.1777C46.9564 46.2955 45.0516 45.5537 43.1268 44.9321C42.7884 44.8244 42.4254 44.7216 42.0846 44.6113Z" fill="#8BFF85"/>
<path id="Vector_11" d="M30.3152 38.6363C33.423 38.7566 36.5106 39.1576 39.5382 39.8193C40.5206 36.6313 41.082 33.3231 41.2424 29.9951H30.3153L30.3152 38.6363Z" fill="#8BFF85"/>
<path id="Vector_12" d="M56.3 29.9946H45.2523C45.0919 33.6638 44.4904 37.2928 43.4277 40.8216C43.746 40.9219 44.0693 41.0271 44.3901 41.1224C46.7761 41.9043 49.1219 42.8467 51.3874 43.9695C54.2345 39.8592 55.9392 35.0068 56.3 29.9946Z" fill="#8BFF85"/>
<path id="Vector_13" d="M30.756 0.0401C30.6157 0.02005 30.4553 0.02005 30.3149 0V13.3331C33.0217 13.2328 35.7084 12.892 38.3548 12.3306C37.623 10.3431 36.6531 8.46847 35.5678 6.67648C34.2245 4.33067 32.6006 2.10541 30.756 0.0401Z" fill="#8BFF85"/>
<path id="Vector_14" d="M30.3152 25.9846H41.2622C41.1218 22.5962 40.5805 19.3081 39.6782 16.1399C36.5905 16.8216 33.4627 17.2226 30.3147 17.3429L30.3152 25.9846Z" fill="#8BFF85"/>
<path id="Vector_15" d="M39.0173 4.63137C40.288 6.71156 41.4233 8.97968 42.2855 11.3078C42.6464 11.2076 42.9873 11.0873 43.3481 10.967C45.2328 10.3655 47.0373 9.6437 48.8017 8.8016C45.4935 5.2728 41.3835 2.68639 36.832 1.24292C37.634 2.3457 38.3557 3.46853 39.0173 4.63137Z" fill="#8BFF85"/>
<path id="Vector_16" d="M51.3877 12.0098C49.2023 13.1125 46.9567 14.0348 44.631 14.7767C44.2902 14.897 43.9293 15.0173 43.5483 15.1175C44.5508 18.6062 45.1323 22.2553 45.2726 25.9849H56.3004C55.9395 20.9724 54.2353 16.1203 51.3882 12.0102L51.3877 12.0098Z" fill="#8BFF85"/>
</g>
</svg>
