<svg width="49" height="46" viewBox="0 0 49 46" fill="none" xmlns="http://www.w3.org/2000/svg">
<path id="Vector" d="M42.8701 11.287H9.00329C8.00762 11.287 7.1981 10.332 7.1981 9.15742C7.1981 7.9828 8.00762 7.02779 9.00329 7.02779H38.2192C38.1092 3.10458 35.3789 -0.00663382 32.0534 1.06227e-05H6.15173C2.75573 0.00333796 0.0028161 3.25102 0 7.25736V38.7759C0.0197445 42.7689 2.767 45.9967 6.15173 46H42.8708C46.2612 45.99 49.0028 42.7423 49 38.7426V18.5444C49.0028 14.5447 46.2605 11.297 42.8701 11.287ZM41.8293 31.5781C41.8293 32.7528 41.0198 33.7078 40.0242 33.7078C39.0285 33.7078 38.219 32.7528 38.219 31.5781V25.7183C38.219 24.5404 39.0285 23.5887 40.0242 23.5887C41.0198 23.5887 41.8293 24.5404 41.8293 25.7183V31.5781Z" fill="black"/>
</svg>
