<svg width="59" height="58" viewBox="0 0 59 58" fill="none" xmlns="http://www.w3.org/2000/svg">
<path id="Vector" d="M56.6924 15.2194L53.8995 14.5819C53.6366 13.7411 53.2993 12.9226 52.8875 12.1412L54.4104 9.72044C55.1198 8.59439 55.0777 7.40878 54.2963 6.62002L52.1782 4.50184C51.3919 3.72051 50.2063 3.67835 49.0827 4.38774L46.6594 5.91065C45.8781 5.49891 45.0596 5.16158 44.2187 4.89864L43.5813 2.10828C43.2886 0.808566 42.4205 0 41.3118 0H38.3155C37.2068 0 36.3362 0.808566 36.046 2.1058L35.4086 4.89864C34.5677 5.16155 33.7492 5.49888 32.9679 5.91065L30.5471 4.38774C29.421 3.67588 28.2354 3.72052 27.4516 4.50184L25.331 6.62002C24.5496 7.4063 24.5075 8.59191 25.2169 9.71548L26.7398 12.1388C26.328 12.9201 25.9907 13.7386 25.7278 14.5795L22.9374 15.2169C21.6377 15.5096 20.8291 16.3777 20.8291 17.4864V20.4827C20.8291 21.5914 21.6377 22.462 22.9349 22.7522L25.7278 23.3896C25.9907 24.2304 26.328 25.049 26.7398 25.8303L25.2169 28.2511C24.5075 29.3771 24.5496 30.5628 25.3334 31.3515L27.4516 33.4672C28.2354 34.251 29.421 34.2957 30.5446 33.5838L32.9679 32.0609C33.7492 32.4701 34.5677 32.81 35.4135 33.0754L36.046 35.8633C36.3387 37.163 37.2068 37.9715 38.3155 37.9715H41.3118C42.4205 37.9715 43.2911 37.163 43.5813 35.8657L44.2187 33.0729C45.0595 32.81 45.8781 32.4727 46.6594 32.0609L49.0802 33.5838C50.2038 34.2932 51.3919 34.251 52.1806 33.4672L54.2988 31.349C55.0801 30.5628 55.1223 29.3771 54.4129 28.2536L52.8875 25.8303C53.2968 25.0514 53.6366 24.233 53.902 23.3896L56.6899 22.7522C57.9896 22.4595 58.7982 21.5914 58.7982 20.4827V17.4864C58.7982 16.3777 57.9896 15.5071 56.6924 15.2169L56.6924 15.2194ZM46.7386 18.987C46.7386 22.8067 43.6308 25.9119 39.8137 25.9119C35.994 25.9119 32.8888 22.8041 32.8888 18.987C32.8888 15.1673 35.9966 12.0595 39.8137 12.0595C43.6334 12.0595 46.7386 15.1674 46.7386 18.987ZM6.95167 24.2057V15.3809C6.95167 12.7939 8.87892 10.6881 11.2501 10.6881H19.4253L17.6717 8.93206C17.3467 8.60714 17.3467 8.07879 17.6717 7.75388C17.9966 7.42896 18.5249 7.42896 18.8499 7.75388L22.0222 10.9312C22.042 10.951 22.0619 10.9709 22.0793 10.9932C22.0867 11.0006 22.0917 11.0106 22.0966 11.018C22.1065 11.0304 22.1165 11.0453 22.1264 11.0577C22.1338 11.0676 22.1388 11.08 22.1462 11.0899C22.1537 11.1023 22.1611 11.1147 22.1685 11.1271C22.176 11.1395 22.1809 11.1495 22.1859 11.1619C22.1934 11.1743 22.1983 11.1867 22.2033 11.2015C22.2082 11.2139 22.2107 11.2239 22.2157 11.2363C22.2206 11.2512 22.2256 11.2636 22.2306 11.2784C22.233 11.2908 22.238 11.3008 22.2405 11.3132C22.2454 11.328 22.2479 11.3429 22.2504 11.3578C22.2529 11.3727 22.2554 11.3851 22.2578 11.4C22.2603 11.4124 22.2628 11.4248 22.2628 11.4397C22.2653 11.4645 22.2653 11.4893 22.2678 11.5116V11.519V11.5215C22.2678 11.5488 22.2653 11.5761 22.2628 11.6034C22.2603 11.6158 22.2578 11.6282 22.2578 11.6406C22.2554 11.6554 22.2529 11.6703 22.2504 11.6852C22.2479 11.7001 22.243 11.7125 22.2405 11.7274C22.238 11.7398 22.2355 11.7522 22.2306 11.7646C22.2256 11.777 22.2206 11.7919 22.2157 11.8043C22.2107 11.8167 22.2058 11.8291 22.2008 11.8415C22.1958 11.8539 22.1909 11.8638 22.1834 11.8762C22.176 11.8886 22.171 11.901 22.1661 11.9134C22.1586 11.9258 22.1537 11.9357 22.1462 11.9481C22.1388 11.9605 22.1313 11.9729 22.1239 11.9853C22.1165 11.9977 22.1065 12.0101 22.0966 12.0225C22.0892 12.0325 22.0817 12.0424 22.0743 12.0523C22.0569 12.0721 22.0396 12.0945 22.0197 12.1143L18.8449 15.2891C18.6812 15.4528 18.4679 15.5322 18.2546 15.5322C18.0413 15.5322 17.828 15.4504 17.6643 15.2891C17.3393 14.9642 17.3393 14.4359 17.6643 14.111L19.4178 12.3574H11.2452C9.79417 12.3574 8.61357 13.7141 8.61357 15.3834V24.2081C8.61357 24.6695 8.23904 25.0415 7.78018 25.0415C7.32131 25.0415 6.94679 24.667 6.94679 24.2081L6.95167 24.2057ZM28.5627 38.46C28.3197 37.5473 27.4714 37.009 26.3552 37.0487L24.2718 37.1281C23.9394 36.6146 23.5649 36.126 23.1531 35.6721L23.7683 33.6804C24.1006 32.6113 23.798 31.6539 22.9795 31.1827L20.9928 30.0368C20.1767 29.5605 19.1945 29.7763 18.4331 30.5998L17.0168 32.1276C16.4166 31.9987 15.8064 31.9168 15.1937 31.887L14.2215 30.0442C13.7006 29.0545 12.8102 28.5932 11.8974 28.8363L9.68243 29.4341C8.76967 29.6771 8.22893 30.5229 8.2711 31.6416L8.35047 33.7225C7.83951 34.0524 7.35338 34.427 6.89449 34.8436L4.90279 34.2285C3.83376 33.8986 2.87636 34.2012 2.40756 35.0148L1.25669 37.004C0.785422 37.8201 1.00369 38.7998 1.82468 39.5587L3.35254 40.9775C3.22356 41.5778 3.14419 42.1879 3.11194 42.8006L1.27403 43.7704C0.284376 44.2887 -0.179466 45.1792 0.0636621 46.0919L0.658943 48.3168C0.906973 49.2246 1.7528 49.7628 2.86894 49.7206L4.94992 49.6412C5.2798 50.1547 5.65435 50.6408 6.06854 51.0997L5.45341 53.0914C5.12105 54.1604 5.42365 55.1178 6.24465 55.5891L8.23387 56.7375C9.0524 57.2088 10.0321 56.993 10.7886 56.1745L12.2049 54.6466C12.8051 54.7756 13.4153 54.8574 14.0304 54.8872L15.0002 56.7301C15.4293 57.5436 16.1089 58 16.8431 58C16.9993 58 17.1605 57.9802 17.3218 57.9355L19.5417 57.3427C20.452 57.0996 20.9927 56.2539 20.948 55.1352L20.8686 53.0542C21.387 52.7194 21.8756 52.3448 22.3271 51.9331L24.3188 52.5482C25.3828 52.8781 26.3403 52.578 26.8165 51.7595L27.9649 49.7678C28.4337 48.9543 28.2179 47.9745 27.3994 47.2106L25.8715 45.7968C26.0005 45.1965 26.0798 44.5864 26.1121 43.9737L27.955 43.0015C28.9421 42.4781 29.4034 41.5876 29.1629 40.6774L28.5701 38.4624L28.5627 38.46ZM15.9352 48.3293C14.6156 48.684 13.2341 48.5004 12.051 47.8183C10.8678 47.1363 10.022 46.0325 9.66735 44.7105C9.31267 43.391 9.49621 42.0094 10.1783 40.8263C10.8604 39.6432 11.9641 38.7974 13.2861 38.4427C13.7276 38.3236 14.1716 38.2691 14.6081 38.2691C16.8653 38.2691 18.9388 39.7796 19.554 42.0615C20.2832 44.7874 18.6611 47.5976 15.9352 48.3293ZM47.7501 37.3018V46.1266C47.7501 48.7136 45.8229 50.8194 43.4517 50.8194H35.2791L37.0352 52.5754C37.3601 52.9004 37.3601 53.4287 37.0352 53.7536C36.8715 53.9173 36.6581 53.9967 36.4448 53.9967C36.2315 53.9967 36.0182 53.9148 35.8545 53.7536L32.6772 50.5763C32.6574 50.5565 32.64 50.5366 32.6226 50.5168C32.6177 50.5118 32.6152 50.5069 32.6127 50.5019C32.6003 50.4845 32.5879 50.4697 32.5755 50.4523C32.573 50.4473 32.5706 50.4424 32.5681 50.4374C32.5557 50.4201 32.5457 50.4002 32.5333 50.3804C32.5309 50.3779 32.5309 50.3729 32.5284 50.3704C32.5185 50.3506 32.5061 50.3283 32.4986 50.306C32.4986 50.3035 32.4961 50.3035 32.4961 50.301C32.4862 50.2787 32.4788 50.2539 32.4713 50.2291C32.4713 50.2266 32.4713 50.2266 32.4689 50.2241C32.4614 50.1993 32.454 50.1745 32.449 50.1497C32.449 50.1447 32.4465 50.1398 32.4465 50.1348C32.4416 50.1125 32.4391 50.0902 32.4366 50.0678C32.4341 50.0455 32.4341 50.0207 32.4317 49.9959V49.9835C32.4317 49.9562 32.4341 49.9265 32.4366 49.8992C32.4391 49.8744 32.4441 49.8521 32.4465 49.8297C32.4465 49.8273 32.4465 49.8223 32.449 49.8198C32.4589 49.7653 32.4763 49.7156 32.4961 49.666V49.6636C32.5061 49.6412 32.516 49.6189 32.5284 49.5966C32.5309 49.5941 32.5309 49.5916 32.5309 49.5891C32.5408 49.5693 32.5532 49.5495 32.5656 49.5296C32.5681 49.5247 32.5705 49.5222 32.573 49.5172C32.5854 49.4999 32.5978 49.48 32.6127 49.4626C32.6152 49.4577 32.6177 49.4552 32.6226 49.4502C32.64 49.4304 32.6574 49.4081 32.6772 49.3907L35.8545 46.2159C36.1794 45.891 36.7078 45.891 37.0327 46.2159C37.3576 46.5408 37.3576 47.0692 37.0327 47.3941L35.2791 49.1452H43.4518C44.9028 49.1452 46.0834 47.7884 46.0834 46.1192V37.2944C46.0834 36.8331 46.4579 36.461 46.9168 36.461C47.3756 36.461 47.7502 36.8356 47.7502 37.2944L47.7501 37.3018Z" fill="#6AE363"/>
</svg>
